<?xml version="1.0" encoding="UTF-8" standalone="no"?>
<!-- Created with Inkscape (http://www.inkscape.org/) -->

<svg
   xmlns:dc="http://purl.org/dc/elements/1.1/"
   xmlns:cc="http://creativecommons.org/ns#"
   xmlns:rdf="http://www.w3.org/1999/02/22-rdf-syntax-ns#"
   xmlns:svg="http://www.w3.org/2000/svg"
   xmlns="http://www.w3.org/2000/svg"
   xmlns:sodipodi="http://sodipodi.sourceforge.net/DTD/sodipodi-0.dtd"
   xmlns:inkscape="http://www.inkscape.org/namespaces/inkscape"
   version="1.0"
   width="143.58208"
   height="50.000004"
   id="svg2"
   inkscape:version="0.48.4 r9939"
   sodipodi:docname="django.svg">
  <metadata
     id="metadata3888">
    <rdf:RDF>
      <cc:Work
         rdf:about="">
        <dc:format>image/svg+xml</dc:format>
        <dc:type
           rdf:resource="http://purl.org/dc/dcmitype/StillImage" />
        <dc:title></dc:title>
      </cc:Work>
    </rdf:RDF>
  </metadata>
  <sodipodi:namedview
     pagecolor="#ffffff"
     bordercolor="#666666"
     borderopacity="1"
     objecttolerance="10"
     gridtolerance="10"
     guidetolerance="10"
     inkscape:pageopacity="0"
     inkscape:pageshadow="2"
     inkscape:window-width="1920"
     inkscape:window-height="1017"
     id="namedview3886"
     showgrid="false"
     fit-margin-top="0"
     fit-margin-left="0"
     fit-margin-right="0"
     fit-margin-bottom="0"
     inkscape:zoom="1.1122443"
     inkscape:cx="504.32716"
     inkscape:cy="115.5776"
     inkscape:window-x="-8"
     inkscape:window-y="-8"
     inkscape:window-maximized="1"
     inkscape:current-layer="svg2" />
  <defs
     id="defs4" />
  <path
     style="fill:#103e2e;fill-opacity:1"
     d="m 96.956988,49.921928 c -1.469425,-0.178906 -3.222209,-0.561095 -4.493149,-0.979725 l -1.19348,-0.393115 -0.0317,-3.624812 -0.0317,-3.624813 0.498436,0.254283 c 0.948214,0.48374 2.679339,1.095779 3.932984,1.390504 1.747099,0.410733 4.992491,0.52305 6.473331,0.224029 2.58872,-0.522734 4.1251,-1.978402 4.599,-4.357399 0.0873,-0.438356 0.19278,-1.207874 0.23434,-1.710041 l 0.0756,-0.913028 -1.17091,0.398222 c -1.51606,0.515604 -2.95469,0.701438 -4.70799,0.608149 -3.333242,-0.177354 -6.18369,-1.491837 -7.99898,-3.688717 -0.825604,-0.999156 -1.740579,-2.862662 -2.13621,-4.350759 -0.295289,-1.110673 -0.318284,-1.374531 -0.318284,-3.651413 0,-2.261723 0.02419,-2.544129 0.308725,-3.600383 1.431744,-5.315354 5.165462,-8.471873 11.526899,-9.744936 4.16957,-0.834424 9.67672,-0.707759 15.19185,0.349413 0.51995,0.09966 0.96662,0.202472 0.9926,0.228456 0.026,0.02599 -0.53823,1.279624 -1.25381,2.785866 l -1.30106,2.73862 -0.92592,-0.04343 -0.92591,-0.04343 0.0871,1.659641 c 0.0479,0.912802 0.0916,5.215277 0.0971,9.561056 0.0109,8.616025 -0.0354,9.365091 -0.72715,11.792264 -1.32381,4.644618 -4.87159,7.615547 -10.21716,8.555897 -1.33912,0.23557 -5.248952,0.342231 -6.584512,0.179625 z m 8.821402,-19.203044 c 0.44876,-0.09445 0.91319,-0.20911 1.03206,-0.254789 0.20465,-0.07864 0.21245,-0.312971 0.14671,-4.407491 -0.0382,-2.378443 -0.1011,-5.207166 -0.13981,-6.286052 l -0.0704,-1.961611 -1.18684,0.08174 c -3.86341,0.266087 -6.288874,2.097697 -6.815339,5.146665 -0.207935,1.204266 -0.08405,3.532444 0.235805,4.431634 0.614304,1.726923 1.862524,2.916815 3.453014,3.291666 0.71119,0.167613 2.45337,0.14586 3.34478,-0.04177 z M 25.784392,46.39106 c -1.711973,-0.815302 -3.328173,-1.585173 -3.591553,-1.710822 l -0.478875,-0.228453 1.01255,-0.509206 c 3.907408,-1.965018 5.638697,-4.244635 6.286303,-8.277281 0.332139,-2.068249 0.419579,-5.053262 0.421294,-14.382079 l 0.0014,-9.188386 3.965913,0 3.965914,0 -0.06618,11.16374 c -0.03936,6.639061 -0.118685,11.673225 -0.19574,12.420786 -0.548084,5.317488 -2.183168,8.499344 -5.514983,10.732091 -1.025429,0.687174 -2.425159,1.483329 -2.585448,1.470583 -0.05952,-0.0045 -1.50892,-0.675669 -3.220895,-1.490973 z M 128.78355,37.586556 c -1.40946,-0.174453 -3.09653,-0.643511 -4.23737,-1.17813 -3.16475,-1.483046 -5.10375,-3.94437 -6.13187,-7.783637 -0.28107,-1.049559 -0.30778,-1.357999 -0.31698,-3.660229 -0.0109,-2.72153 0.0798,-3.442453 0.65749,-5.226239 1.45735,-4.500132 4.72753,-7.258875 9.56301,-8.067426 1.79989,-0.300962 4.89935,-0.19694 6.47623,0.217352 4.83172,1.269432 7.65387,4.417414 8.64014,9.637666 0.20226,1.070512 0.19551,4.624337 -0.0109,5.773157 -0.97699,5.436415 -4.33369,8.980783 -9.53314,10.066151 -1.28682,0.268618 -3.83293,0.378975 -5.10657,0.221335 z m 4.08123,-6.701474 c 1.93522,-1.03146 2.86887,-3.388875 2.72413,-6.878269 -0.12651,-3.049926 -1.03173,-4.958615 -2.75136,-5.801366 -1.19776,-0.586992 -2.85176,-0.602081 -3.97561,-0.03627 -1.10731,0.557495 -1.97377,1.686665 -2.45842,3.203826 -0.3761,1.177337 -0.4726,4.135564 -0.18175,5.571015 0.38529,1.901456 1.30133,3.324914 2.53674,3.94191 0.82545,0.412252 1.18165,0.478716 2.33132,0.435008 0.89529,-0.03403 1.12849,-0.0913 1.77495,-0.435859 z m -84.890325,6.467573 c -3.47277,-0.307191 -5.761604,-1.498539 -6.743489,-3.51001 -0.611319,-1.252341 -0.781069,-2.063016 -0.781069,-3.730192 0,-2.427093 0.530705,-3.850962 1.964284,-5.270151 1.720945,-1.703662 5.025933,-2.899115 9.408964,-3.403326 0.625525,-0.07196 1.371075,-0.160664 1.656765,-0.197121 l 0.519444,-0.06629 -0.04055,-1.239729 c -0.04554,-1.391405 -0.198271,-1.735419 -0.946965,-2.132862 -0.626489,-0.332569 -3.987181,-0.216102 -5.737975,0.198853 -1.442369,0.341856 -3.020619,0.881002 -4.296794,1.467828 -0.48665,0.223778 -0.904164,0.40687 -0.927814,0.40687 -0.02365,0 -0.043,-1.347512 -0.043,-2.99447 l 0,-2.99447 0.68838,-0.309559 c 1.178279,-0.529862 3.742708,-1.332051 5.088468,-1.591742 3.075381,-0.593461 6.506335,-0.568941 8.683789,0.06206 2.607674,0.755674 3.881634,2.011079 4.423603,4.359175 0.186415,0.80765 0.2068,1.83621 0.208715,10.532392 l 0.002,9.637332 -1.6162,0.202469 c -3.810658,0.47738 -9.429336,0.757048 -11.510667,0.572939 z m 4.32756,-5.50472 c 0.62553,-0.06381 1.33935,-0.148414 1.586269,-0.188027 l 0.448946,-0.07202 0,-2.631895 0,-2.631897 -0.68838,0.07708 c -2.339199,0.261893 -4.130302,0.694225 -5.030852,1.214331 -1.542529,0.890872 -1.604848,3.174104 -0.107887,3.952758 0.73886,0.38432 1.915287,0.471093 3.791912,0.279682 z M 12.124703,37.225198 C 8.7915791,36.927487 5.7945002,35.863285 3.9088608,34.307921 1.2022369,32.075373 -0.18802759,28.392287 0.02047233,24.006813 0.3424022,17.23554 4.3006557,12.787549 10.948503,11.7267 c 1.235745,-0.197199 4.204889,-0.173564 5.168623,0.04114 l 0.74824,0.166696 0,-5.965631 0,-5.965635 3.950709,0 3.950708,0 0,18.124902 0,18.124902 -1.047534,0.192031 c -4.162924,0.763126 -8.509998,1.055601 -11.594546,0.780092 z m 3.932564,-6.292879 0.808099,-0.07633 0,-6.322137 0,-6.322137 -0.44894,-0.132138 c -0.246919,-0.07268 -0.987679,-0.161345 -1.64613,-0.197035 -4.248433,-0.230275 -6.7599316,2.245213 -6.7599316,6.663001 0,2.097761 0.4927549,3.597493 1.5489094,4.714224 1.3848242,1.464244 3.3493882,1.969914 6.4979932,1.672549 z m 48.934902,-5.777304 0,-11.841245 1.52641,-0.362763 c 5.648478,-1.342401 10.480666,-1.729755 14.14993,-1.134274 2.356164,0.382379 3.989474,1.131402 5.288208,2.425135 0.89438,0.890934 1.42488,1.832258 1.816454,3.223109 0.251935,0.894864 0.258485,1.12062 0.2966,10.223177 l 0.039,9.308108 -3.896313,0 -3.896314,0 -10e-4,-7.811626 c -5e-4,-4.89914 -0.04794,-8.10166 -0.127113,-8.589527 -0.24713,-1.523247 -1.032244,-2.367332 -2.450924,-2.635018 -0.96737,-0.182528 -2.597974,-0.103278 -3.915789,0.190321 l -0.927815,0.206708 0,9.319572 0,9.31957 -3.950708,0 -3.950708,0 0,-11.841247 z M 29.435801,4.012204 l 0,-4.012204 3.920778,0.03157 3.920779,0.03156 0.03155,3.980638 0.03155,3.980636 -3.952318,0 -3.952323,0 0,-4.012201 z"
     id="path3901"
     inkscape:connector-curvature="0" />
</svg>
