<?xml version="1.0" encoding="UTF-8" standalone="no"?>
<!-- Created with Inkscape (http://www.inkscape.org/) -->

<svg
   xmlns:dc="http://purl.org/dc/elements/1.1/"
   xmlns:cc="http://creativecommons.org/ns#"
   xmlns:rdf="http://www.w3.org/1999/02/22-rdf-syntax-ns#"
   xmlns:svg="http://www.w3.org/2000/svg"
   xmlns="http://www.w3.org/2000/svg"
   xmlns:sodipodi="http://sodipodi.sourceforge.net/DTD/sodipodi-0.dtd"
   xmlns:inkscape="http://www.inkscape.org/namespaces/inkscape"
   version="1.0"
   width="115.43969"
   height="50"
   id="svg2"
   inkscape:version="0.48.4 r9939"
   sodipodi:docname="less.svg">
  <metadata
     id="metadata3888">
    <rdf:RDF>
      <cc:Work
         rdf:about="">
        <dc:format>image/svg+xml</dc:format>
        <dc:type
           rdf:resource="http://purl.org/dc/dcmitype/StillImage" />
        <dc:title />
      </cc:Work>
    </rdf:RDF>
  </metadata>
  <sodipodi:namedview
     pagecolor="#ffffff"
     bordercolor="#666666"
     borderopacity="1"
     objecttolerance="10"
     gridtolerance="10"
     guidetolerance="10"
     inkscape:pageopacity="0"
     inkscape:pageshadow="2"
     inkscape:window-width="1920"
     inkscape:window-height="1017"
     id="namedview3886"
     showgrid="false"
     fit-margin-top="0"
     fit-margin-left="0"
     fit-margin-right="0"
     fit-margin-bottom="0"
     inkscape:zoom="6.2918038"
     inkscape:cx="43.962485"
     inkscape:cy="31.819014"
     inkscape:window-x="-8"
     inkscape:window-y="-8"
     inkscape:window-maximized="1"
     inkscape:current-layer="g4472" />
  <defs
     id="defs4" />
  <g
     id="g4472"
     transform="matrix(0.69536061,0,0,0.69536061,-2.4411775e-5,-6.6849192e-7)">
    <path
       sodipodi:nodetypes="ccccccssccccc"
       inkscape:connector-curvature="0"
       id="rect3919"
       d="m 19.166365,0.06564808 127.243275,0 8.89463,9.20841992 -0.0339,22.3296 c 12.72165,2.59036 -0.20317,38.16123 -8.86074,40.30147 l -127.243275,0 c -1.53714,-4.29659 -5.63219,-4.09529 -7.25218,-8.04725 -1.41964,-3.46316 -0.36839,-11.07473 -1.68042,-14.83003 -1.4395301,-4.12023 0.85762,-8.57282 -4.1536301,-13.70123 l 5.6665001,-5.02809 -0.2586,-21.33243 5.52839,-3.81448 z"
       style="fill:#1b3154;fill-opacity:1;stroke:none" />
    <g
       transform="matrix(2.691357,0,0,2.691357,-1680.1967,508.04617)"
       id="text3922"
       style="font-size:32px;font-style:normal;font-variant:normal;font-weight:normal;font-stretch:normal;line-height:125%;letter-spacing:0px;word-spacing:0px;fill:#c4cede;fill-opacity:1;stroke:none;font-family:Franklin Gothic Medium;-inkscape-font-specification:Franklin Gothic Medium">
      <path
         style="fill:#c4cede;fill-opacity:1"
         inkscape:connector-curvature="0"
         id="path3927"
         d="m 627.02789,-175.4101 c 1.29167,0.63543 1.9375,1.8698 1.9375,3.70313 l 0,4.625 c 0,1.20833 0.22916,1.9401 0.6875,2.19531 0.45833,0.25521 1.26562,0.38281 2.42188,0.38281 l 0,2.39063 -1.40625,0.0312 c -1.59376,-1e-5 -2.75521,-0.34376 -3.48438,-1.03125 -0.72917,-0.6875 -1.09375,-1.84375 -1.09375,-3.46875 l 0,-4.98438 c 0,-1.02082 -0.17187,-1.71614 -0.51562,-2.08593 -0.34375,-0.36979 -0.77084,-0.61198 -1.28125,-0.72657 l 0,-2.26562 c 1.19791,-0.24999 1.79687,-1.11978 1.79687,-2.60938 l 0,-5.23437 c 0,-1.52081 0.36719,-2.61456 1.10157,-3.28125 0.73437,-0.66665 1.92447,-0.99998 3.57031,-1 0.28124,2e-5 0.71874,0.0104 1.3125,0.0312 l 0,2.39062 c -1.31251,2e-5 -2.15886,0.16669 -2.53906,0.5 -0.38022,0.33336 -0.57032,1.00523 -0.57032,2.01563 l 0,4.75 c 0,0.64584 -0.0964,1.3047 -0.28906,1.97656 -0.19271,0.67189 -0.74219,1.23699 -1.64844,1.69531 z" />
    </g>
    <g
       style="font-size:32px;font-style:normal;font-variant:normal;font-weight:normal;font-stretch:normal;line-height:125%;letter-spacing:0px;word-spacing:0px;fill:#c4cede;fill-opacity:1;stroke:none;font-family:Franklin Gothic Medium;-inkscape-font-specification:Franklin Gothic Medium"
       id="text4468"
       transform="translate(0,-0.01938915)">
      <path
         d="m 38.898395,56.978657 0,-8.799887 -3.999949,0 C 33.590111,48.17707 32.64679,47.860451 32.068481,47.228783 31.490138,46.597134 31.206809,45.66048 31.218493,44.418818 l 0,-44.39942789 -10.399866,0 0,45.03941989 c -0.02834,3.086635 0.928316,5.813263 2.869964,8.179894 1.941631,2.366638 5.038254,3.613287 9.28988,3.739953 z"
         style="font-size:80px;font-weight:bold;letter-spacing:-5.34000014999999980px;fill:#c4cede;fill-opacity:1;font-family:DINPro-Bold;-inkscape-font-specification:DINPro-Bold Bold"
         id="path4482"
         inkscape:connector-curvature="0" />
      <path
         d="m 76.055681,39.378883 0,-4.63994 C 76.023974,28.904045 74.447329,24.154111 71.32574,20.489126 68.204081,16.824214 63.727477,14.93424 57.895915,14.8192 c -5.481612,0.03671 -9.858219,1.883348 -13.129832,5.539928 -3.27163,3.656653 -4.948273,8.903247 -5.029934,15.739798 0.188326,8.274904 2.171632,13.944825 5.949923,17.009779 3.778271,3.064961 8.221543,4.514942 13.329829,4.349946 3.684924,-0.0083 6.734882,-0.571661 9.149881,-1.68998 2.414935,-1.118318 4.644904,-2.741628 6.689915,-4.869936 l -6.319919,-6.159921 c -1.263348,1.318328 -2.596663,2.301647 -3.999948,2.949962 -1.403343,0.648333 -3.216652,0.971662 -5.43993,0.969988 -2.934984,-0.05166 -5.184953,-0.928311 -6.749915,-2.629966 -1.564995,-1.701632 -2.354984,-3.918268 -2.369968,-6.649915 z m -10.239868,-7.119908 -15.839796,0 c 0.03498,-0.89663 0.124982,-1.683286 0.269995,-2.359971 0.144984,-0.67663 0.374981,-1.383287 0.689993,-2.119971 0.559977,-1.264955 1.419965,-2.294942 2.579965,-3.089962 1.159966,-0.794956 2.619946,-1.20495 4.379945,-1.229983 1.759955,0.02503 3.219935,0.435027 4.379945,1.229984 1.159957,0.795021 2.019944,1.825007 2.579965,3.089961 0.314967,0.736684 0.544963,1.443341 0.689991,2.119971 0.144968,0.676685 0.234967,1.463341 0.269997,2.359971 z"
         style="font-size:80px;font-weight:bold;letter-spacing:-5.34000014999999980px;fill:#c4cede;fill-opacity:1;font-family:DINPro-Bold;-inkscape-font-specification:DINPro-Bold Bold"
         id="path4484"
         inkscape:connector-curvature="0" />
      <path
         d="m 111.74197,43.858826 c -0.002,-3.539938 -1.03836,-6.359899 -3.10996,-8.459891 -2.07167,-2.099949 -5.1683,-3.359932 -9.289882,-3.779952 l -6.559916,-0.639991 c -1.789995,-0.19497 -2.969979,-0.644964 -3.539957,-1.349983 -0.570007,-0.704963 -0.830002,-1.454953 -0.779987,-2.249971 -0.01335,-1.076623 0.453312,-2.003277 1.399981,-2.779966 0.946638,-0.776623 2.453284,-1.183283 4.519943,-1.219983 1.828288,-0.0183 3.591596,0.178365 5.289931,0.589992 1.698287,0.411693 3.161597,1.14835 4.389947,2.209972 l 6.39991,-6.479916 c -2.00834,-1.848271 -4.35164,-3.131587 -7.02991,-3.849951 -2.67832,-0.718283 -5.641613,-1.061611 -8.88988,-1.029986 -4.379961,0.01337 -8.11991,1.146691 -11.219858,3.399955 -3.099966,2.25334 -4.719943,5.546628 -4.859935,9.879874 0.03666,3.801642 1.123315,6.61827 3.259959,8.44989 2.136629,1.831662 5.103255,2.908314 8.899884,3.229959 l 6.559916,0.639992 c 1.618288,0.170015 2.761605,0.59001 3.429954,1.259985 0.6683,0.670006 0.99163,1.529993 0.96999,2.579966 -0.0817,1.54499 -0.85835,2.654974 -2.329973,3.329955 -1.471671,0.674999 -3.148314,1.004995 -5.029933,0.989989 -1.64833,0.05167 -3.471638,-0.171657 -5.46993,-0.669992 -1.998321,-0.498317 -3.881628,-1.581635 -5.649927,-3.249958 l -6.799913,6.799913 c 2.639962,2.55997 5.439923,4.219946 8.399892,4.979935 2.959949,0.759989 6.079906,1.099984 9.35988,1.019988 5.041576,0.0083 9.218184,-1.108318 12.529834,-3.349957 3.31159,-2.241632 5.02823,-5.658252 5.14994,-10.249868 z"
         style="font-size:80px;font-weight:bold;letter-spacing:-5.34000014999999980px;fill:#c4cede;fill-opacity:1;font-family:DINPro-Bold;-inkscape-font-specification:DINPro-Bold Bold"
         id="path4486"
         inkscape:connector-curvature="0" />
      <path
         d="m 146.55821,43.858826 c -0.002,-3.539938 -1.03835,-6.359899 -3.10996,-8.459891 -2.07167,-2.099949 -5.16829,-3.359932 -9.28988,-3.779952 l -6.55991,-0.639991 c -1.79,-0.19497 -2.96998,-0.644964 -3.53996,-1.349983 -0.57001,-0.704963 -0.83,-1.454953 -0.77999,-2.249971 -0.0133,-1.076623 0.45332,-2.003277 1.39998,-2.779966 0.94664,-0.776623 2.45329,-1.183283 4.51995,-1.219983 1.82829,-0.0183 3.59159,0.178365 5.28993,0.589992 1.69828,0.411693 3.1616,1.14835 4.38994,2.209972 l 6.39992,-6.479916 c -2.00834,-1.848271 -4.35164,-3.131587 -7.02991,-3.849951 -2.67832,-0.718283 -5.64162,-1.061611 -8.88988,-1.029986 -4.37996,0.01337 -8.11991,1.146691 -11.21986,3.399955 -3.09997,2.25334 -4.71995,5.546628 -4.85994,9.879874 0.0367,3.801642 1.12332,6.61827 3.25996,8.44989 2.13663,1.831662 5.10326,2.908314 8.89989,3.229959 l 6.55991,0.639992 c 1.61829,0.170015 2.76161,0.59001 3.42996,1.259985 0.66829,0.670006 0.99162,1.529993 0.96998,2.579966 -0.0817,1.54499 -0.85834,2.654974 -2.32997,3.329955 -1.47167,0.674999 -3.14831,1.004995 -5.02993,0.989989 -1.64833,0.05167 -3.47164,-0.171657 -5.46993,-0.669992 -1.99832,-0.498317 -3.88163,-1.581635 -5.64993,-3.249958 l -6.79991,6.799913 c 2.63996,2.55997 5.43992,4.219946 8.39989,4.979935 2.95995,0.759989 6.07991,1.099984 9.35988,1.019988 5.04158,0.0083 9.21819,-1.108318 12.52984,-3.349957 3.31159,-2.241632 5.02823,-5.658252 5.14993,-10.249868 z"
         style="font-size:80px;font-weight:bold;letter-spacing:-5.34000014999999980px;fill:#c4cede;fill-opacity:1;font-family:DINPro-Bold;-inkscape-font-specification:DINPro-Bold Bold"
         id="path4488"
         inkscape:connector-curvature="0" />
    </g>
    <g
       transform="matrix(-2.6913569,0,0,2.6913569,1846.2108,508.04615)"
       id="text3922-4"
       style="font-size:32px;font-style:normal;font-variant:normal;font-weight:normal;font-stretch:normal;line-height:125%;letter-spacing:0px;word-spacing:0px;fill:#c4cede;fill-opacity:1;stroke:none;font-family:Franklin Gothic Medium;-inkscape-font-specification:Franklin Gothic Medium">
      <path
         style="fill:#c4cede;fill-opacity:1"
         inkscape:connector-curvature="0"
         id="path3927-0"
         d="m 627.02789,-175.4101 c 1.29167,0.63543 1.9375,1.8698 1.9375,3.70313 l 0,4.625 c 0,1.20833 0.22916,1.9401 0.6875,2.19531 0.45833,0.25521 1.26562,0.38281 2.42188,0.38281 l 0,2.39063 -1.40625,0.0312 c -1.59376,-1e-5 -2.75521,-0.34376 -3.48438,-1.03125 -0.72917,-0.6875 -1.09375,-1.84375 -1.09375,-3.46875 l 0,-4.98438 c 0,-1.02082 -0.17187,-1.71614 -0.51562,-2.08593 -0.34375,-0.36979 -0.77084,-0.61198 -1.28125,-0.72657 l 0,-2.26562 c 1.19791,-0.24999 1.79687,-1.11978 1.79687,-2.60938 l 0,-5.23437 c 0,-1.52081 0.36719,-2.61456 1.10157,-3.28125 0.73437,-0.66665 1.92447,-0.99998 3.57031,-1 0.28124,2e-5 0.71874,0.0104 1.3125,0.0312 l 0,2.39062 c -1.31251,2e-5 -2.15886,0.16669 -2.53906,0.5 -0.38022,0.33336 -0.57032,1.00523 -0.57032,2.01563 l 0,4.75 c 0,0.64584 -0.0964,1.3047 -0.28906,1.97656 -0.19271,0.67189 -0.74219,1.23699 -1.64844,1.69531 z" />
    </g>
  </g>
</svg>
