<?xml version="1.0" encoding="UTF-8" standalone="no"?>
<!-- Created with Inkscape (http://www.inkscape.org/) -->

<svg
   xmlns:dc="http://purl.org/dc/elements/1.1/"
   xmlns:cc="http://creativecommons.org/ns#"
   xmlns:rdf="http://www.w3.org/1999/02/22-rdf-syntax-ns#"
   xmlns:svg="http://www.w3.org/2000/svg"
   xmlns="http://www.w3.org/2000/svg"
   xmlns:sodipodi="http://sodipodi.sourceforge.net/DTD/sodipodi-0.dtd"
   xmlns:inkscape="http://www.inkscape.org/namespaces/inkscape"
   width="116.54388"
   height="100"
   id="svg2"
   version="1.1"
   inkscape:version="0.48.4 r9939"
   sodipodi:docname="New document 1">
  <defs
     id="defs4" />
  <sodipodi:namedview
     id="base"
     pagecolor="#ffffff"
     bordercolor="#666666"
     borderopacity="1.0"
     inkscape:pageopacity="0.0"
     inkscape:pageshadow="2"
     inkscape:zoom="1.4"
     inkscape:cx="136.50637"
     inkscape:cy="-87.262774"
     inkscape:document-units="px"
     inkscape:current-layer="layer1"
     showgrid="false"
     fit-margin-top="0"
     fit-margin-left="0"
     fit-margin-right="0"
     fit-margin-bottom="0"
     inkscape:window-width="1920"
     inkscape:window-height="1017"
     inkscape:window-x="-8"
     inkscape:window-y="-8"
     inkscape:window-maximized="1" />
  <metadata
     id="metadata7">
    <rdf:RDF>
      <cc:Work
         rdf:about="">
        <dc:format>image/svg+xml</dc:format>
        <dc:type
           rdf:resource="http://purl.org/dc/dcmitype/StillImage" />
        <dc:title></dc:title>
      </cc:Work>
    </rdf:RDF>
  </metadata>
  <g
     inkscape:label="Layer 1"
     inkscape:groupmode="layer"
     id="layer1"
     transform="translate(-186.24456,-407.70247)">
    <g
       id="g3034"
       transform="matrix(0.61805031,0,0,0.61805031,71.136053,193.9168)">
      <g
         transform="translate(287.09081,215.47127)"
         id="g3011">
        <title
           id="title3013">Layer 1</title>
        <g
           id="layer1-7">
          <g
             id="g3170">
            <path
               style="fill:#000000;fill-rule:evenodd;stroke:none"
               inkscape:connector-curvature="0"
               stroke-miterlimit="4"
               d="m -24.307595,280.07545 c 0,0 -5.18082,3.79924 -7.80393,4.49882 -2.36099,0.62967 -5.88046,0.87279 -8.15869,0 -1.89248,-0.72499 -4.96618,-4.49882 -4.96618,-4.49882 -20.43528,4.91215 -30.32714,-12.00911 -31.57056,-22.14791 0,0 -7.15293,-1.75418 -10.28705,-2.07637 -8.86465,-0.91128 -13.423185,-22.91505 -13.479595,-24.2243 -1.67204,-38.81423 3.835125,-57.97727 30.861125,-83.40084 11.7609,-11.0635 29.47608,-16.80391 56.04663,-17.64913 16.7595505,-0.53312 30.79221,0.18863 42.21234,5.88304 0,0 23.39182,9.53109 31.92536,15.91883 8.18957,6.13026 17.0357,16.15241 23.05716,24.91642 8.14489,17.33911 4.93658,43.75662 -14.18903,46.71834 l -22.34772,3.4606 c -6.33877,1.05589 8.45411,12.63843 -8.86813,22.84006 -14.35626,14.12362 -31.2528695,1.48935 -32.6347695,2.76847 0,0 -6.15435004,8.47744 -8.15869,12.45821 -1.94415,3.86122 -3.87597,9.32809 -4.96615,13.49641 -0.85215,3.25814 1.21945,9.40659 -1.77362,11.07396 -7.2480205,4.03777 -14.8985005,1.3741 -14.8985005,-0.34607 l 0,-9.68972 z"
               id="path3168" />
          </g>
        </g>
      </g>
      <g
         id="text2985"
         style="font-size:32px;font-style:normal;font-variant:normal;font-weight:normal;font-stretch:normal;line-height:125%;letter-spacing:0px;word-spacing:0px;fill:#ffffff;fill-opacity:1;stroke:none;font-family:Franklin Gothic Medium;-inkscape-font-specification:Franklin Gothic Medium">
        <path
           id="path3030"
           style="font-size:144px;font-style:italic;fill:#ffffff;font-family:Adobe Arabic;-inkscape-font-specification:Adobe Arabic Italic"
           d="m 218.47433,384.06644 3.09375,0 c 1.95116,-0.0512 3.12889,0.22711 3.53321,0.83496 0.40428,0.60797 0.35154,2.06403 -0.15821,4.36816 -1.70069,8.20025 -3.3794,16.07524 -5.03613,23.625 -1.65675,7.54984 -3.21241,14.7217 -4.66699,21.51563 -0.65626,3.37355 -0.90821,6.10108 -0.75586,8.18261 0.15234,2.08155 0.63866,3.73682 1.45898,4.96582 0.84668,1.35938 2.07128,2.45508 3.67383,3.28711 1.60253,0.83203 3.35448,1.25977 5.25586,1.28321 1.97313,0.0249 4.35496,-0.39405 7.14551,-1.25684 2.7905,-0.86279 5.75241,-2.31884 8.88574,-4.36816 4.72848,-3.19043 8.56051,-7.53222 11.4961,-13.02539 2.9355,-5.49314 4.44721,-11.13572 4.53515,-16.92774 -0.0264,-3.50094 -0.72954,-6.30757 -2.10937,-8.41992 -1.37993,-2.11226 -3.27837,-3.19624 -5.69532,-3.25195 -2.4683,-0.0366 -5.68802,1.16166 -9.65917,3.59472 -3.97122,2.43315 -8.22806,6.32084 -12.77051,11.66309 l -0.21094,0 c 1.42234,-6.4526 2.86668,-12.86568 4.33301,-19.23926 1.46628,-6.37348 3.06882,-13.01507 4.80761,-19.9248 0.25486,-1.02386 0.34275,-1.80608 0.26368,-2.34668 -0.0791,-0.54046 -0.37796,-0.81292 -0.89649,-0.81739 -0.91116,0.0836 -2.76272,0.54939 -5.55469,1.39747 -2.79201,0.84821 -6.33107,1.5777 -10.61718,2.18847 z m 11.74219,63.28125 c -2.22951,0.0923 -4.06349,-0.83057 -5.50195,-2.76856 -1.43849,-1.93798 -1.76076,-5.44481 -0.9668,-10.52051 0.60936,-3.38669 1.21874,-5.96482 1.82813,-7.73437 3.28269,-4.48386 6.68405,-8.13718 10.2041,-10.95996 3.51999,-2.82272 6.2358,-4.27877 8.14746,-4.36817 0.94332,-0.0234 1.74606,0.53325 2.4082,1.66993 0.66207,1.13675 1.00778,2.99417 1.03711,5.57226 -0.12894,6.3135 -1.38285,12.02053 -3.76172,17.1211 -2.37894,5.10059 -5.1094,8.62793 -8.1914,10.58203 -0.79251,0.4585 -1.65091,0.80713 -2.5752,1.0459 -0.92434,0.23877 -1.80031,0.35889 -2.62793,0.36035 z"
           inkscape:connector-curvature="0" />
        <path
           id="path3032"
           style="font-size:144px;font-style:italic;fill:#ffffff;font-family:Adobe Arabic;-inkscape-font-specification:Adobe Arabic Italic"
           d="m 267.34152,406.70706 -3.23437,3.02344 0.35156,1.125 8.71875,0 c -0.81593,4.85599 -1.64503,9.83938 -2.4873,14.95019 -0.8423,5.11086 -1.86476,11.16652 -3.06739,18.167 -1.68311,9.56542 -3.08057,16.01073 -4.19238,19.33593 -1.11182,3.32518 -1.96436,5.20018 -2.55762,5.625 -0.47314,0.63866 -1.09131,1.1367 -1.85449,1.49414 -0.76318,0.35741 -1.57471,0.53905 -2.43457,0.54493 -1.0166,-0.0132 -2.20019,-0.26809 -3.55078,-0.76465 -1.35058,-0.4966 -2.46386,-1.15578 -3.33985,-1.97754 -0.30467,-0.32082 -0.60936,-0.48781 -0.91406,-0.50098 -0.30467,-0.0132 -0.67967,0.15379 -1.125,0.50098 -0.79686,0.65037 -1.48827,1.38865 -2.07422,2.21484 -0.58592,0.82615 -0.92576,1.63475 -1.01953,2.42578 0.0923,1.20555 0.83937,2.2573 2.24121,3.15528 1.40187,0.89792 2.9048,1.3696 4.50879,1.41504 1.52491,0.0263 3.27393,-0.43069 5.24707,-1.3711 1.97315,-0.94045 4.09131,-2.52248 6.35449,-4.74609 3.01172,-2.83596 5.58398,-6.51564 7.7168,-11.03906 2.1328,-4.52345 4.10741,-11.01563 5.92383,-19.47657 1.22166,-5.75242 2.22361,-10.82371 3.00586,-15.21386 0.7822,-4.39011 1.60838,-9.23288 2.47851,-14.52832 l 10.6875,-0.98438 2.10938,-3.375 -11.95313,0 c 1.5659,-9.51703 3.12742,-15.93597 4.68458,-19.25683 1.55709,-3.32074 3.20651,-4.87054 4.94824,-4.64942 1.09127,0.0132 2.19576,0.3736 3.31347,1.08106 1.11764,0.70758 2.23971,1.68317 3.36621,2.92675 0.79684,0.80866 1.66403,0.87897 2.60157,0.21094 0.57857,-0.44525 1.17915,-1.08392 1.80176,-1.91601 0.62251,-0.83197 0.95942,-1.71673 1.01074,-2.6543 0.003,-1.05462 -0.58306,-2.07415 -1.75782,-3.05859 -1.17484,-0.98431 -2.74515,-1.51165 -4.71093,-1.58204 -2.05961,0.003 -4.42679,0.68269 -7.10157,2.03907 -2.67483,1.35651 -5.32326,3.37213 -7.94531,6.04687 -2.3965,2.65143 -4.3008,5.78619 -5.71289,9.4043 -1.41212,3.61821 -2.50783,7.42095 -3.28711,11.4082 z"
           inkscape:connector-curvature="0" />
      </g>
    </g>
  </g>
</svg>
