<?xml version="1.0" encoding="UTF-8" standalone="no"?>
<!-- Created with Inkscape (http://www.inkscape.org/) -->

<svg
   xmlns:dc="http://purl.org/dc/elements/1.1/"
   xmlns:cc="http://creativecommons.org/ns#"
   xmlns:rdf="http://www.w3.org/1999/02/22-rdf-syntax-ns#"
   xmlns:svg="http://www.w3.org/2000/svg"
   xmlns="http://www.w3.org/2000/svg"
   xmlns:sodipodi="http://sodipodi.sourceforge.net/DTD/sodipodi-0.dtd"
   xmlns:inkscape="http://www.inkscape.org/namespaces/inkscape"
   width="28.222223mm"
   height="28.222221mm"
   viewBox="0 0 100 99.999996"
   id="svg2"
   version="1.1"
   inkscape:version="0.91 r13725"
   sodipodi:docname="crisp.svg">
  <defs
     id="defs4" />
  <sodipodi:namedview
     id="base"
     pagecolor="#ffffff"
     bordercolor="#666666"
     borderopacity="1.0"
     inkscape:pageopacity="0.0"
     inkscape:pageshadow="2"
     inkscape:zoom="0.35"
     inkscape:cx="303.2715"
     inkscape:cy="178.60376"
     inkscape:document-units="px"
     inkscape:current-layer="g2992"
     showgrid="false"
     fit-margin-top="0"
     fit-margin-left="0"
     fit-margin-right="0"
     fit-margin-bottom="0"
     inkscape:window-width="1920"
     inkscape:window-height="1018"
     inkscape:window-x="-8"
     inkscape:window-y="-8"
     inkscape:window-maximized="1" />
  <metadata
     id="metadata7">
    <rdf:RDF>
      <cc:Work
         rdf:about="">
        <dc:format>image/svg+xml</dc:format>
        <dc:type
           rdf:resource="http://purl.org/dc/dcmitype/StillImage" />
        <dc:title></dc:title>
      </cc:Work>
    </rdf:RDF>
  </metadata>
  <g
     inkscape:label="Layer 1"
     inkscape:groupmode="layer"
     id="layer1"
     transform="translate(-71.728499,-610.96594)">
    <g
       transform="matrix(4.3256721,0,0,4.3256721,-943.05928,-1187.8596)"
       id="layer1-4"
       inkscape:label="Layer 1">
      <g
         transform="matrix(0.97402597,0,0,0.97402597,-1459.9999,77.206088)"
         id="g2992">
        <text
           xml:space="preserve"
           style="font-style:normal;font-weight:normal;font-size:12px;font-family:Lello;fill:#000000;fill-opacity:1;stroke:none"
           x="-471.24011"
           y="-946.41162"
           id="text2171"><tspan
             sodipodi:role="line"
             id="tspan2173"
             x="-471.24011"
             y="-946.41162" /></text>
        <g
           id="g3368"
           transform="matrix(0.18060782,0,0,0.1806078,1425.5668,304.32837)">
          <circle
             r="55.606003"
             cy="306.63916"
             cx="1805.4923"
             id="path3366"
             style="fill:#ffffff;fill-rule:evenodd;stroke:#000000;stroke-width:0.23734269px;stroke-linecap:butt;stroke-linejoin:miter;stroke-opacity:1" />
          <path
             style="fill:#6f275e;fill-opacity:0.94117647"
             d="m 1805.4995,239.99414 c -36.2911,0 -65.7138,29.40861 -65.7138,65.69959 0,36.291 29.4227,65.71372 65.7138,65.71372 36.2909,0 65.6995,-29.42272 65.6995,-65.71372 0,-36.29098 -29.4086,-65.69959 -65.6995,-65.69959 z m -14.5263,23.39154 c 2.1258,6e-5 4.1328,0.87403 6.042,2.62572 1.9093,1.75185 3.5716,4.74655 4.9691,8.97829 1.3975,4.23189 3.5695,13.00817 6.522,26.31372 l 4.1927,18.71888 c 1.6927,7.75507 3.4663,12.93891 5.3362,15.55672 1.8698,2.61783 4.1072,3.92448 6.7054,3.92447 4.4089,10e-6 6.9055,-3.11141 7.4961,-9.33121 l 2.1316,0 c 0,6.2198 -1.0078,10.74604 -3.0351,13.58036 -2.0274,2.83434 -4.5638,4.24916 -7.5949,4.24916 -2.4801,0 -4.8599,-0.92525 -7.143,-2.79512 -2.2833,-1.86987 -4.3301,-6.88569 -6.1409,-15.0344 l -5.082,-22.91157 -17.5895,39.92232 -11.1664,0 25.269,-54.44851 c -1.3384,-7.0464 -2.9525,-12.25589 -4.8421,-15.64141 -1.8895,-3.38539 -4.221,-5.08197 -7.016,-5.08205 -2.2438,6e-5 -4.2137,0.85692 -5.8867,2.56925 -1.673,1.71248 -2.5983,4.36555 -2.7951,7.94776 l -2.1316,0 c 0.118,-5.78668 1.2823,-10.43522 3.4868,-13.91917 2.2045,-3.48378 4.9657,-5.22312 8.2724,-5.22321 z"
             id="path2999"
             inkscape:connector-curvature="0"
             inkscape:export-filename="C:\Users\Saul\Documents\WebstormProjects\crisp\favicon.png"
             inkscape:export-xdpi="11.25"
             inkscape:export-ydpi="11.25" />
        </g>
        <g
           id="text3011"
           style="font-style:normal;font-weight:normal;font-size:40px;line-height:125%;font-family:Sans;letter-spacing:0px;word-spacing:0px;fill:#a7699b;fill-opacity:1;stroke:none"
           transform="matrix(1.0266667,0,0,1.0266667,1673.57,104.21208)" />
      </g>
    </g>
  </g>
</svg>
