<?xml version="1.0" encoding="UTF-8" standalone="no"?>
<!-- Created with Inkscape (http://www.inkscape.org/) -->

<svg
   xmlns:dc="http://purl.org/dc/elements/1.1/"
   xmlns:cc="http://creativecommons.org/ns#"
   xmlns:rdf="http://www.w3.org/1999/02/22-rdf-syntax-ns#"
   xmlns:svg="http://www.w3.org/2000/svg"
   xmlns="http://www.w3.org/2000/svg"
   xmlns:sodipodi="http://sodipodi.sourceforge.net/DTD/sodipodi-0.dtd"
   xmlns:inkscape="http://www.inkscape.org/namespaces/inkscape"
   version="1.0"
   width="124.48897"
   height="100.0051"
   id="svg2"
   inkscape:version="0.48.4 r9939"
   sodipodi:docname="denobo.svg">
  <metadata
     id="metadata3888">
    <rdf:RDF>
      <cc:Work
         rdf:about="">
        <dc:format>image/svg+xml</dc:format>
        <dc:type
           rdf:resource="http://purl.org/dc/dcmitype/StillImage" />
      </cc:Work>
    </rdf:RDF>
  </metadata>
  <sodipodi:namedview
     pagecolor="#ffffff"
     bordercolor="#666666"
     borderopacity="1"
     objecttolerance="10"
     gridtolerance="10"
     guidetolerance="10"
     inkscape:pageopacity="0"
     inkscape:pageshadow="2"
     inkscape:window-width="1920"
     inkscape:window-height="1017"
     id="namedview3886"
     showgrid="false"
     fit-margin-top="0"
     fit-margin-left="0"
     fit-margin-right="0"
     fit-margin-bottom="0"
     inkscape:zoom="1.5729509"
     inkscape:cx="90.915985"
     inkscape:cy="73.02817"
     inkscape:window-x="-8"
     inkscape:window-y="-8"
     inkscape:window-maximized="1"
     inkscape:current-layer="svg2" />
  <defs
     id="defs4" />
  <g
     transform="matrix(0.3675953,0,0,0.3675953,-57.489687,-142.07794)"
     id="layer1">
    <path
       d="m 408.55588,465.75538 c -30.56335,-53.06121 -104.311,-75.17589 -159.02489,-47.68919 -38.42608,18.9492 -62.0533,57.6005 -76.73815,96.26864 -10.54066,27.90154 -17.04399,59.09514 -9.19028,88.58646 9.65244,22.92584 34.24839,33.82277 56.47554,41.00599 44.35446,14.06783 94.69655,15.96562 138.20982,-2.86355 53.17807,-25.56161 81.7463,-92.09378 62.67363,-148.05625 -3.00431,-9.50621 -7.26758,-18.65725 -12.40567,-27.2521 z"
       id="path2383"
       style="fill:#a05a2c;fill-opacity:1;fill-rule:nonzero;stroke:#000000;stroke-width:7.45018959;stroke-linecap:round;stroke-linejoin:round;stroke-miterlimit:4;stroke-opacity:1"
       inkscape:connector-curvature="0" />
    <path
       d="m 323.03125,408.15625 c 8.32175,4.50238 16.06067,10.09979 22.90625,16.8125 6.69114,6.3517 12.7261,13.40407 17.75,21.09375 30.8057,44.92471 21.96908,111.06457 -18.875,146.9375 -33.93859,27.5016 -79.09185,38.29206 -121.9375,36.8125 -17.35472,-0.69396 -36.66626,-3.14341 -50.96875,-13.5 12.00141,14.11023 30.79129,22.01311 48.15625,27.625 44.35447,14.0678 94.70548,15.95417 138.21875,-2.875 53.17806,-25.5616 81.76017,-92.10003 62.6875,-148.0625 -3.00431,-9.50621 -7.26816,-18.65515 -12.40625,-27.25 -17.88158,-31.04431 -50.54587,-51.47157 -85.53125,-57.59375 z"
       id="path3250"
       style="fill:#000000;fill-opacity:0.31372549;fill-rule:nonzero;stroke:none"
       inkscape:connector-curvature="0" />
    <path
       d="m 412.48334,455.53177 c 15.06907,-23.39707 62.94494,-35.93304 72.86642,-23.69828 9.92148,12.23476 5.19339,33.74395 2.1789,36.30087 -3.01451,2.55691 -22.6426,-13.05519 -39.75435,-5.21696 -17.11176,7.83824 -26.76761,15.86255 -26.76761,15.86255 l -8.52336,-23.24818 z"
       id="path3239"
       style="fill:#502d16;fill-opacity:1;fill-rule:evenodd;stroke:#000000;stroke-width:7.45019054;stroke-linecap:butt;stroke-linejoin:miter;stroke-miterlimit:4;stroke-opacity:1;stroke-dasharray:none"
       inkscape:connector-curvature="0" />
    <path
       d="m 490.84375,445.21875 c -0.48116,2.87433 -1.49292,5.09203 -2.46875,5.78125 -2.8235,1.99419 -23.42222,-6.23933 -39.90625,0.6875 -16.48402,6.92681 -25.53125,13.1875 -25.53125,13.1875 L 414.5,452.78125 c -0.70858,0.90603 -1.42444,1.80784 -2.03125,2.75 l 8.53125,23.25 c 0,0 9.66948,-8.03675 26.78125,-15.875 17.11175,-7.83823 36.73549,7.77565 39.75,5.21875 2.06846,-1.75449 4.91688,-12.42434 3.3125,-22.90625 z"
       id="path3263"
       style="fill:#000000;fill-opacity:0.31372549;fill-rule:evenodd;stroke:none"
       inkscape:connector-curvature="0" />
    <path
       d="m 422.00746,458.2417 c -30.12347,-51.6757 -95.27666,-80.45656 -151.2372,-62.77158 -12.40982,3.05151 -13.12229,18.91718 -12.96081,18.69457 21.88828,-9.44863 36.39449,11.3268 56.2786,35.6243 24.31911,29.71688 48.53803,71.78114 64.20784,110.57455 10.96542,27.14685 17.21711,52.59275 3.33156,65.47466 0.45974,0.29078 13.54778,8.09184 23.53269,-3.37672 49.0396,-52.80695 46.41306,-116.87766 16.84732,-164.21978 z"
       id="path3201"
       style="fill:#502d16;fill-opacity:1;fill-rule:nonzero;stroke:#000000;stroke-width:7.45019054;stroke-linecap:round;stroke-linejoin:round;stroke-miterlimit:4;stroke-opacity:1"
       inkscape:connector-curvature="0" />
    <path
       d="m 420.00492,452.85358 c 3.95244,37.28038 -6.29029,68.79316 -31.03065,95.21137 -5.61209,5.99269 -10.75454,2.18551 -15.56802,0.7788 1.69678,3.86018 3.33529,7.71941 4.875,11.53125 10.96541,27.14686 17.2293,52.58684 3.34375,65.46875 0.45975,0.29078 13.54634,8.09356 23.53125,-3.375 44.9175,-48.36817 48.22761,-113.25112 14.84867,-169.61517 z"
       id="path3269"
       style="fill:#000000;fill-opacity:0.31372549;fill-rule:nonzero;stroke:none"
       inkscape:connector-curvature="0" />
  </g>
</svg>
