<?xml version="1.0" encoding="UTF-8" standalone="no"?>
<!-- Created with Inkscape (http://www.inkscape.org/) -->

<svg
   xmlns:dc="http://purl.org/dc/elements/1.1/"
   xmlns:cc="http://creativecommons.org/ns#"
   xmlns:rdf="http://www.w3.org/1999/02/22-rdf-syntax-ns#"
   xmlns:svg="http://www.w3.org/2000/svg"
   xmlns="http://www.w3.org/2000/svg"
   xmlns:sodipodi="http://sodipodi.sourceforge.net/DTD/sodipodi-0.dtd"
   xmlns:inkscape="http://www.inkscape.org/namespaces/inkscape"
   width="96"
   height="96"
   id="svg3105"
   version="1.1"
   inkscape:version="0.48.4 r9939"
   sodipodi:docname="New document 6">
  <defs
     id="defs3107" />
  <sodipodi:namedview
     id="base"
     pagecolor="#ffffff"
     bordercolor="#666666"
     borderopacity="1.0"
     inkscape:pageopacity="0.0"
     inkscape:pageshadow="2"
     inkscape:zoom="1"
     inkscape:cx="444.12011"
     inkscape:cy="118.98357"
     inkscape:document-units="px"
     inkscape:current-layer="layer1"
     showgrid="false"
     fit-margin-top="0"
     fit-margin-left="0"
     fit-margin-right="0"
     fit-margin-bottom="0"
     inkscape:window-width="1920"
     inkscape:window-height="1017"
     inkscape:window-x="-8"
     inkscape:window-y="-8"
     inkscape:window-maximized="1" />
  <metadata
     id="metadata3110">
    <rdf:RDF>
      <cc:Work
         rdf:about="">
        <dc:format>image/svg+xml</dc:format>
        <dc:type
           rdf:resource="http://purl.org/dc/dcmitype/StillImage" />
        <dc:title></dc:title>
      </cc:Work>
    </rdf:RDF>
  </metadata>
  <g
     inkscape:label="Layer 1"
     inkscape:groupmode="layer"
     id="layer1"
     transform="translate(-157.50998,-105.23155)">
    <path
       style="fill:#000000"
       d="m 189.06555,200.67138 c -4.80712,-1.80538 -9.48368,-4.51186 -13.62428,-7.88481 -2.11056,-1.71928 -5.6215,-5.3251 -7.37106,-7.57027 -13.75241,-17.64817 -14.10661,-42.45694 -0.86356,-60.48511 7.1292,-9.7052 17.33873,-16.27403 29.0201,-18.6716 3.43096,-0.70419 4.84689,-0.8298 9.33369,-0.82802 3.17874,10e-4 4.77669,0.0752 6.2761,0.29045 12.96443,1.861 24.29825,8.68684 32.14009,19.35651 5.233,7.12006 8.48804,15.79382 9.37464,24.9808 0.21079,2.18423 0.21178,6.68111 0.002,9.02219 -1.37529,15.34654 -9.80405,29.29786 -22.60795,37.42078 -3.83186,2.43096 -9.33266,4.92993 -10.85044,4.92925 -0.72895,-3.3e-4 -1.58257,-0.443 -2.01218,-1.04348 -0.32426,-0.45324 -0.33572,-0.70142 -0.42327,-9.16351 -0.0799,-7.72868 -0.12262,-8.81722 -0.38297,-9.77086 -0.43509,-1.59367 -1.14321,-3.10257 -1.95158,-4.15847 l -0.71876,-0.93885 0.76702,-0.1045 c 12.89579,-1.75691 19.2324,-7.70007 20.73725,-19.44968 0.35765,-2.79249 0.23866,-7.55536 -0.23688,-9.48163 -0.70352,-2.84971 -1.90114,-5.36918 -3.56075,-7.49085 -0.59065,-0.75509 -0.79581,-1.14474 -0.7287,-1.38398 0.73693,-2.62705 0.95351,-4.71724 0.72403,-6.98779 -0.18714,-1.85158 -0.67108,-4.0619 -1.11455,-5.09049 l -0.31058,-0.72038 -1.11791,0 c -2.62596,0 -6.62024,1.58524 -10.72823,4.2578 l -1.2874,0.83755 -1.28741,-0.3163 c -4.59823,-1.12973 -10.08497,-1.56252 -14.48331,-1.14243 -2.20546,0.21065 -5.40011,0.73312 -7.03476,1.15052 l -1.24144,0.317 -1.49921,-0.96677 c -2.31628,-1.49365 -4.82493,-2.75773 -6.78505,-3.41893 -1.54042,-0.51962 -2.00434,-0.60445 -3.38508,-0.61901 l -1.60002,-0.0169 -0.4363,1.40342 c -1.05501,3.39358 -1.21141,7.06597 -0.43341,10.17653 l 0.37725,1.50833 -0.46547,0.55552 c -0.89406,1.067 -2.27095,3.36557 -2.85245,4.76186 -1.42861,3.43035 -1.84388,6.74332 -1.42851,11.3964 0.41783,4.6805 1.62324,8.53034 3.67045,11.72269 1.53909,2.4 4.54488,4.95295 7.46621,6.34137 2.4692,1.17353 5.97131,2.17822 9.01867,2.58727 l 1.54058,0.20679 -0.65096,0.75703 c -1.01305,1.17812 -1.8094,3.02976 -2.29957,5.34687 -0.28924,1.36729 -5.82942,2.20934 -8.45581,1.28519 -1.31148,-0.46147 -2.82406,-1.45693 -3.73944,-2.461 -0.38725,-0.42476 -1.16486,-1.47814 -1.72803,-2.34083 -1.83639,-2.81308 -3.99693,-4.52254 -6.35594,-5.02894 -1.63759,-0.35153 -3.3036,0.0189 -3.3036,0.73462 0,0.45814 0.90047,1.44834 1.93111,2.12353 1.12954,0.73999 2.48754,2.13549 3.34818,3.44064 0.37073,0.5622 1.17408,2.08754 1.78522,3.38964 1.02772,2.18967 1.20232,2.4563 2.32499,3.55044 1.30723,1.27402 3.03747,2.26597 4.85242,2.7819 1.42687,0.40561 5.52935,0.50178 7.47678,0.17527 0.8374,-0.1404 1.53618,-0.24 1.55285,-0.22133 0.0167,0.0187 0.0557,2.22575 0.0867,4.90463 0.0539,4.65495 0.0419,4.8963 -0.27091,5.44858 -0.39893,0.70428 -1.22405,1.15796 -2.08656,1.14726 -0.35404,-0.004 -1.29545,-0.25276 -2.09204,-0.55193 z m -0.84521,-14.42945 c -0.54727,-0.0876 -0.77791,-0.64503 -0.43008,-1.03937 0.51345,-0.58209 1.83853,-0.28077 1.83853,0.41808 0,0.42626 -0.69953,0.73483 -1.40845,0.62129 z m 3.37979,-0.53545 c -0.46456,-0.19159 -0.46679,-0.72642 -0.004,-1.0587 0.75683,-0.54388 1.92919,-0.11346 1.56944,0.5762 -0.30716,0.58884 -0.87937,0.76526 -1.56502,0.4825 z m -7.55453,-0.39762 c -0.3712,-0.33112 -0.42,-0.45595 -0.27436,-0.70172 0.34825,-0.58766 1.46901,-0.42157 1.83041,0.27126 0.12312,0.23605 0.10101,0.37989 -0.0883,0.57409 -0.36595,0.37546 -0.94991,0.31832 -1.46778,-0.14363 z m -2.78008,-1.62478 c -0.21859,-0.11341 -0.50757,-0.4075 -0.64217,-0.65353 -0.22258,-0.40686 -0.2196,-0.4731 0.0328,-0.73211 0.21851,-0.22418 0.37119,-0.25099 0.71766,-0.12598 0.57504,0.20749 0.9982,0.95332 0.7604,1.34022 -0.23392,0.38061 -0.40168,0.4137 -0.86873,0.1714 z m -2.72892,-3.19564 c -0.18344,-0.23927 -0.33353,-0.5216 -0.33353,-0.62741 0,-0.257 0.33546,-0.58863 0.59543,-0.58863 0.37504,0 0.8529,0.64754 0.8529,1.15576 0,0.41432 -0.0639,0.49532 -0.39063,0.49532 -0.23034,0 -0.5275,-0.17852 -0.72417,-0.43504 z m -1.85083,-2.63126 c -0.13908,-0.1427 -0.25288,-0.43989 -0.25288,-0.66043 0,-0.31057 0.0851,-0.40098 0.37737,-0.40098 0.4598,0 0.91004,0.47614 0.91004,0.96238 0,0.43808 -0.64398,0.49973 -1.03453,0.099 z m -2.03041,-2.0596 c -0.30307,-0.31094 -0.31862,-0.38921 -0.11823,-0.59481 0.35492,-0.36414 1.13059,-0.0157 1.06206,0.4771 -0.0694,0.49894 -0.51776,0.55486 -0.94383,0.11771 z"
       id="path3124"
       inkscape:connector-curvature="0" />
  </g>
</svg>
