<?xml version="1.0" encoding="UTF-8" standalone="no"?>
<!-- Created with Inkscape (http://www.inkscape.org/) -->

<svg
   xmlns:dc="http://purl.org/dc/elements/1.1/"
   xmlns:cc="http://creativecommons.org/ns#"
   xmlns:rdf="http://www.w3.org/1999/02/22-rdf-syntax-ns#"
   xmlns:svg="http://www.w3.org/2000/svg"
   xmlns="http://www.w3.org/2000/svg"
   xmlns:sodipodi="http://sodipodi.sourceforge.net/DTD/sodipodi-0.dtd"
   xmlns:inkscape="http://www.inkscape.org/namespaces/inkscape"
   width="96"
   height="96"
   id="svg3048"
   version="1.1"
   inkscape:version="0.48.4 r9939"
   sodipodi:docname="New document 3">
  <defs
     id="defs3050" />
  <sodipodi:namedview
     id="base"
     pagecolor="#ffffff"
     bordercolor="#666666"
     borderopacity="1.0"
     inkscape:pageopacity="0.0"
     inkscape:pageshadow="2"
     inkscape:zoom="1.4"
     inkscape:cx="173.52944"
     inkscape:cy="213.10176"
     inkscape:document-units="px"
     inkscape:current-layer="text3071"
     showgrid="false"
     fit-margin-top="0"
     fit-margin-left="0"
     fit-margin-right="0"
     fit-margin-bottom="0"
     inkscape:window-width="1920"
     inkscape:window-height="1017"
     inkscape:window-x="-8"
     inkscape:window-y="-8"
     inkscape:window-maximized="1" />
  <metadata
     id="metadata3053">
    <rdf:RDF>
      <cc:Work
         rdf:about="">
        <dc:format>image/svg+xml</dc:format>
        <dc:type
           rdf:resource="http://purl.org/dc/dcmitype/StillImage" />
        <dc:title></dc:title>
      </cc:Work>
    </rdf:RDF>
  </metadata>
  <g
     inkscape:label="Layer 1"
     inkscape:groupmode="layer"
     id="layer1"
     transform="translate(-244.04724,-558.18109)">
    <g
       style="font-size:32px;font-style:normal;font-variant:normal;font-weight:normal;font-stretch:normal;line-height:125%;letter-spacing:0px;word-spacing:0px;fill:#ffffff;fill-opacity:1;stroke:none;font-family:Franklin Gothic Medium;-inkscape-font-specification:Franklin Gothic Medium"
       id="text3071">
      <rect
         style="fill:#1c87bd;fill-opacity:1;stroke:none"
         id="rect3069"
         width="96"
         height="96"
         x="244.04724"
         y="558.18109"
         ry="12.640144" />
      <path
         inkscape:connector-curvature="0"
         d="m 273.86341,581.586 c -2e-5,2.3233 -0.79677,4.28166 -2.39026,5.87512 -1.59352,1.59355 -3.5519,2.3903 -5.87512,2.39026 -2.29347,4e-5 -4.23695,-0.80415 -5.83045,-2.4126 -1.59351,-1.60835 -2.39026,-3.55927 -2.39026,-5.85278 0,-2.2934 0.79675,-4.23688 2.39026,-5.83045 1.5935,-1.59344 3.53698,-2.39019 5.83045,-2.39026 2.29344,7e-5 4.24437,0.79682 5.85278,2.39026 1.60838,1.59357 2.41258,3.53705 2.4126,5.83045 z m -0.93824,57.41089 -14.65429,0 0,-41.46094 14.65429,0 z"
         style="font-size:244px;font-weight:bold;fill:#ffffff;font-family:Aharoni;-inkscape-font-specification:Aharoni Bold"
         id="path3076" />
      <path
         inkscape:connector-curvature="0"
         d="m 326.71717,638.99689 -14.6543,0 0,-20.99854 c -3e-5,-3.66355 -0.41703,-6.09104 -1.25098,-7.28247 -1.22122,-1.75729 -3.053,-2.63596 -5.49536,-2.63599 -2.23391,3e-5 -4.11037,0.75956 -5.62939,2.27857 -1.37014,1.37014 -2.0552,3.51467 -2.05518,6.43359 l 0,22.20484 -14.6543,0 0,-41.46094 14.6543,0 0,5.22729 c 1.69774,-1.96578 3.26145,-3.35079 4.69116,-4.15502 2.32322,-1.31051 5.22727,-1.96578 8.71216,-1.96583 4.46774,5e-5 8.10152,1.20634 10.90137,3.6189 3.18696,2.74027 4.78047,6.85062 4.78052,12.33105 z"
         style="font-size:244px;font-weight:bold;fill:#ffffff;font-family:Aharoni;-inkscape-font-specification:Aharoni Bold"
         id="path3078" />
    </g>
  </g>
</svg>
