<?xml version="1.0" encoding="UTF-8" standalone="no"?>
<!-- Created with Inkscape (http://www.inkscape.org/) -->

<svg
   xmlns:dc="http://purl.org/dc/elements/1.1/"
   xmlns:cc="http://creativecommons.org/ns#"
   xmlns:rdf="http://www.w3.org/1999/02/22-rdf-syntax-ns#"
   xmlns:svg="http://www.w3.org/2000/svg"
   xmlns="http://www.w3.org/2000/svg"
   xmlns:sodipodi="http://sodipodi.sourceforge.net/DTD/sodipodi-0.dtd"
   xmlns:inkscape="http://www.inkscape.org/namespaces/inkscape"
   width="96"
   height="96"
   id="svg2"
   version="1.1"
   inkscape:version="0.48.4 r9939"
   sodipodi:docname="New document 1">
  <defs
     id="defs4" />
  <sodipodi:namedview
     id="base"
     pagecolor="#ffffff"
     bordercolor="#666666"
     borderopacity="1.0"
     inkscape:pageopacity="0.0"
     inkscape:pageshadow="2"
     inkscape:zoom="1.979899"
     inkscape:cx="-108.0963"
     inkscape:cy="-34.449013"
     inkscape:document-units="px"
     inkscape:current-layer="layer1"
     showgrid="false"
     fit-margin-top="0"
     fit-margin-left="0"
     fit-margin-right="0"
     fit-margin-bottom="0"
     inkscape:window-width="1920"
     inkscape:window-height="1017"
     inkscape:window-x="-8"
     inkscape:window-y="-8"
     inkscape:window-maximized="1" />
  <metadata
     id="metadata7">
    <rdf:RDF>
      <cc:Work
         rdf:about="">
        <dc:format>image/svg+xml</dc:format>
        <dc:type
           rdf:resource="http://purl.org/dc/dcmitype/StillImage" />
        <dc:title></dc:title>
      </cc:Work>
    </rdf:RDF>
  </metadata>
  <g
     inkscape:label="Layer 1"
     inkscape:groupmode="layer"
     id="layer1"
     transform="translate(-211.10413,-297.76047)">
    <rect
       style="font-size:32px;font-style:normal;font-variant:normal;font-weight:normal;font-stretch:normal;line-height:125%;letter-spacing:0px;word-spacing:0px;fill:#00b0ed;fill-opacity:1;stroke:none;font-family:Franklin Gothic Medium;-inkscape-font-specification:Franklin Gothic Medium"
       id="rect3069"
       width="96"
       height="96"
       x="211.10413"
       y="297.76047"
       ry="12.640144" />
    <path
       style="fill:#ffffff"
       d="m 243.91689,374.47758 c -4.95031,-0.26951 -9.6351,-1.34109 -14.04465,-3.21253 -1.8352,-0.77885 -4.32141,-2.0718 -5.65406,-2.94033 l -0.49487,-0.32254 0.34193,0.036 c 7.27686,0.76512 14.70436,-1.26578 20.53883,-5.61593 l 0.5513,-0.41104 -0.80628,-0.0732 c -2.08856,-0.18975 -3.75699,-0.66131 -5.50889,-1.55703 -2.7188,-1.39006 -4.96098,-3.64746 -6.35139,-6.39448 -0.39049,-0.77145 -0.88116,-1.99406 -0.82346,-2.05177 0.0178,-0.0178 0.35038,0.0165 0.739,0.0764 0.85637,0.13195 2.85648,0.15039 3.6907,0.034 0.74884,-0.10445 1.85359,-0.32355 1.91259,-0.37933 0.0261,-0.0247 -0.16972,-0.0958 -0.4352,-0.15809 -1.91293,-0.44862 -4.00229,-1.49043 -5.64274,-2.81362 -2.9677,-2.39373 -4.89975,-5.93253 -5.31212,-9.72985 -0.0767,-0.70609 -0.0869,-1.72765 -0.0173,-1.72765 0.0266,0 0.10971,0.043 0.18472,0.0955 0.47047,0.32954 2.38021,1.04809 3.46603,1.30413 0.81574,0.19235 2.76656,0.4572 2.76656,0.37559 0,-0.0141 -0.27278,-0.23051 -0.60616,-0.48075 -1.11653,-0.83808 -2.45962,-2.24506 -3.23377,-3.38758 -1.28914,-1.90257 -2.1041,-4.07278 -2.4124,-6.42414 -0.12715,-0.96981 -0.0932,-3.19202 0.0628,-4.1032 0.24757,-1.44674 0.64617,-2.69839 1.27698,-4.00993 0.53196,-1.10601 0.44759,-1.07353 1.01924,-0.39234 1.59357,1.89895 3.82683,4.06634 5.84754,5.67505 5.54203,4.41206 12.13933,7.319 19.18345,8.45275 1.37016,0.22052 4.31626,0.52663 4.38707,0.45582 0.013,-0.013 -0.002,-0.11996 -0.034,-0.23771 -0.2949,-1.09713 -0.38283,-3.83603 -0.16698,-5.20077 0.66116,-4.18013 2.89797,-7.67608 6.40402,-10.00888 1.28804,-0.85702 3.0433,-1.61991 4.54813,-1.97675 1.23357,-0.29252 1.9589,-0.37022 3.45041,-0.36959 1.57466,6.6e-4 2.28227,0.0847 3.63692,0.43211 2.37332,0.60859 4.58636,1.83569 6.33149,3.51072 0.50586,0.48553 0.64475,0.58719 0.77899,0.57016 0.41219,-0.0523 2.49897,-0.61264 3.39742,-0.91227 1.69047,-0.56376 3.64212,-1.43161 5.2333,-2.32713 l 0.4475,-0.25186 -0.11279,0.32672 c -1.0058,2.9132 -3.00017,5.5146 -5.55315,7.24339 -0.33308,0.22554 -0.5959,0.41979 -0.58402,0.43165 0.0119,0.0119 0.31235,-0.0214 0.66776,-0.0739 2.1672,-0.32028 4.60104,-0.98398 6.63467,-1.80925 0.45562,-0.1849 0.84275,-0.33618 0.86029,-0.33618 0.0427,0 -0.43701,0.6751 -1.11615,1.57082 -1.45547,1.91963 -3.53045,3.98942 -5.49324,5.47948 l -0.56542,0.42925 -0.0329,2.24404 c -0.0344,2.34901 -0.11532,3.45608 -0.39334,5.38362 -1.01072,7.00756 -3.88738,13.90654 -8.19157,19.64559 -6.72323,8.96448 -16.43097,14.4576 -27.73621,15.69452 -2.05134,0.22444 -5.18116,0.32332 -7.03669,0.2223 z"
       id="path3007"
       inkscape:connector-curvature="0" />
  </g>
</svg>
