<?xml version="1.0" encoding="UTF-8" standalone="no"?>
<!-- Created with Inkscape (http://www.inkscape.org/) -->

<svg
   xmlns:dc="http://purl.org/dc/elements/1.1/"
   xmlns:cc="http://creativecommons.org/ns#"
   xmlns:rdf="http://www.w3.org/1999/02/22-rdf-syntax-ns#"
   xmlns:svg="http://www.w3.org/2000/svg"
   xmlns="http://www.w3.org/2000/svg"
   xmlns:sodipodi="http://sodipodi.sourceforge.net/DTD/sodipodi-0.dtd"
   xmlns:inkscape="http://www.inkscape.org/namespaces/inkscape"
   width="100"
   height="100"
   id="svg2"
   version="1.1"
   inkscape:version="0.48.4 r9939"
   sodipodi:docname="New document 1">
  <defs
     id="defs4" />
  <sodipodi:namedview
     id="base"
     pagecolor="#ffffff"
     bordercolor="#666666"
     borderopacity="1.0"
     inkscape:pageopacity="0.0"
     inkscape:pageshadow="2"
     inkscape:zoom="0.7"
     inkscape:cx="-140.46807"
     inkscape:cy="1.4932634"
     inkscape:document-units="px"
     inkscape:current-layer="layer1"
     showgrid="false"
     fit-margin-top="0"
     fit-margin-left="0"
     fit-margin-right="0"
     fit-margin-bottom="0"
     inkscape:window-width="1920"
     inkscape:window-height="1017"
     inkscape:window-x="-8"
     inkscape:window-y="-8"
     inkscape:window-maximized="1" />
  <metadata
     id="metadata7">
    <rdf:RDF>
      <cc:Work
         rdf:about="">
        <dc:format>image/svg+xml</dc:format>
        <dc:type
           rdf:resource="http://purl.org/dc/dcmitype/StillImage" />
        <dc:title></dc:title>
      </cc:Work>
    </rdf:RDF>
  </metadata>
  <g
     inkscape:label="Layer 1"
     inkscape:groupmode="layer"
     id="layer1"
     transform="translate(-314.0632,-401.20261)">
    <flowRoot
       xml:space="preserve"
       id="flowRoot3007"
       style="font-size:32px;font-style:normal;font-variant:normal;font-weight:normal;font-stretch:normal;line-height:125%;letter-spacing:0px;word-spacing:0px;fill:#000000;fill-opacity:1;stroke:none;font-family:Franklin Gothic Medium;-inkscape-font-specification:Franklin Gothic Medium"><flowRegion
         id="flowRegion3009"><rect
           id="rect3011"
           width="291.42856"
           height="532.85712"
           x="387.14285"
           y="222.36218" /></flowRegion><flowPara
         id="flowPara3013"></flowPara></flowRoot>    <g
       id="g3022"
       transform="matrix(0.40535766,0,0,0.40535766,186.75528,290.41835)">
      <g
         transform="translate(601.30131,466.71153)"
         id="g3002"
         style="font-size:12px;font-style:normal;font-weight:normal;fill:#000000;fill-opacity:1;stroke:#000000;stroke-width:1;stroke-linecap:square;stroke-linejoin:miter;stroke-miterlimit:10;stroke-opacity:1;stroke-dasharray:none;stroke-dashoffset:0;font-family:Dialog">
        <g
           transform="translate(-155.71429,-348.57143)"
           id="g2992">
          <g
             id="g2994">
            <path
               style="stroke:none"
               inkscape:connector-curvature="0"
               d="m 40.9219,279.2812 q 18.4219,-25.875 41.2031,-25.875 14.625,0 23.8359,9.211 9.211,9.2109 9.211,20.1797 0,24.8906 -19.4766,46.8984 -19.4765,22.0078 -64.8984,53.3672 l 0,-209.1094 10.125,0 0,105.3281 z m 0,86.2032 q 53.0156,-38.5313 53.0156,-71.7188 0,-8.4375 -5.2031,-14.2031 -5.2032,-5.7656 -13.2188,-5.7656 -9.1406,0 -16.4531,4.5703 -7.3125,4.5703 -18.1406,16.8047 l 0,70.3125 z"
               id="path2996" />
          </g>
        </g>
      </g>
      <g
         transform="translate(0,-5.33475)"
         id="text3015"
         style="font-size:32px;font-style:normal;font-variant:normal;font-weight:normal;font-stretch:normal;line-height:125%;letter-spacing:0px;word-spacing:0px;fill:#000000;fill-opacity:1;stroke:none;font-family:Franklin Gothic Medium;-inkscape-font-specification:Franklin Gothic Medium">
        <path
           inkscape:connector-curvature="0"
           id="path3020"
           style="font-size:225px;font-family:Arial;-inkscape-font-specification:Arial"
           d="m 435.13254,447.32104 21.31347,5.38331 c -4.46792,17.50491 -12.50624,30.85329 -24.11499,40.04516 -11.609,9.1919 -25.79966,13.78784 -42.57202,13.78784 -17.35847,0 -31.47588,-3.53393 -42.35229,-10.6018 -10.8765,-7.06786 -19.15286,-17.30344 -24.8291,-30.70679 -5.67629,-13.40327 -8.51442,-27.79534 -8.51441,-43.17627 -10e-6,-16.77236 3.20433,-31.40247 9.61304,-43.89038 6.40866,-12.48766 15.52731,-21.97251 27.35596,-28.45459 11.82855,-6.48177 24.84734,-9.72274 39.05639,-9.7229 16.11318,1.6e-4 29.66297,4.10172 40.64942,12.30469 10.98619,8.20326 18.63999,19.7389 22.96142,34.60693 l -20.98388,4.94385 c -3.73548,-11.71863 -9.1554,-20.25133 -16.25977,-25.59815 -7.1046,-5.34653 -16.04014,-8.01987 -26.80664,-8.02002 -12.378,1.5e-4 -22.72345,2.96646 -31.03638,8.89893 -8.31303,5.93275 -14.15409,13.89783 -17.52319,23.89526 -3.36918,9.99766 -5.05375,20.30649 -5.05371,30.92652 -4e-5,13.69635 1.99581,25.65313 5.98755,35.87036 3.99165,10.21732 10.19892,17.85281 18.62182,22.90649 8.42279,5.05373 17.54143,7.58058 27.35596,7.58057 11.93838,10e-6 22.04579,-3.44237 30.32227,-10.32715 8.27624,-6.88473 13.87926,-17.10201 16.80908,-30.65186 z" />
      </g>
    </g>
  </g>
</svg>
